<svg width="120" height="67" viewBox="0 0 120 67" fill="none" xmlns="http://www.w3.org/2000/svg" role="img" aria-label="Swiss Plasma Polishing">
<g id="Logo">
<path id="Vector" d="M99.9263 55.5274H98.2662L98.0529 54.3765C97.4285 55.3154 96.3928 55.7697 95.1591 55.7697C92.25 55.7697 90.3462 53.7253 90.3462 50.3937C90.3462 47.062 92.25 44.9873 95.3723 44.9873C97.596 44.9873 99.4846 46.1837 99.9263 48.531H97.3675C97.0782 47.5163 96.3471 46.9711 95.3114 46.9711C93.7426 46.9711 92.844 48.2584 92.844 50.3937C92.844 52.5289 93.7883 53.7859 95.3875 53.7859C96.4994 53.7859 97.4285 53.1801 97.596 51.7869H95.616V49.9545H99.9263V55.5274Z" fill="black"/>
<path id="Vector_2" d="M78.8017 55.5274V45.2296H81.3757L84.6503 50.6359L85.4423 52.2715L85.3205 45.2296H87.7574V55.5274H85.1834L81.9088 50.121L81.1168 48.4704L81.2386 55.5274H78.8017Z" fill="black"/>
<path id="Vector_3" d="M73.4368 55.5274V45.2296H75.8737V55.5274H73.4368Z" fill="black"/>
<path id="Vector_4" d="M61.5577 55.5274V45.2296H63.9946V49.273H68.0764V45.2296H70.5134V55.5274H68.0764V51.2417H63.9946V55.5274H61.5577Z" fill="black"/>
<path id="Vector_5" d="M53.0598 47.8798C53.0598 50.0756 59.1521 48.2129 59.1521 52.4229C59.1521 54.5431 57.3854 55.7697 54.9637 55.7697C52.5115 55.7697 50.76 54.6491 50.3945 52.3018H52.9685C53.1665 53.3164 53.8823 53.8767 54.9789 53.8767C56.0755 53.8767 56.6543 53.4376 56.6543 52.7258C56.6543 50.4239 50.5468 52.1806 50.5468 48.1069C50.5468 46.3805 51.9937 44.9873 54.5372 44.9873C56.6848 44.9873 58.5429 46.0019 58.8628 48.3795H56.2583C56.0451 47.3649 55.4511 46.8803 54.4458 46.8803C53.5929 46.8803 53.0598 47.274 53.0598 47.8798Z" fill="black"/>
<path id="Vector_6" d="M45.5479 55.5274V45.2296H47.9848V55.5274H45.5479Z" fill="black"/>
<path id="Vector_7" d="M36.1821 55.5274V45.2296H38.619V53.5587H43.173V55.5274H36.1821Z" fill="black"/>
<path id="Vector_8" d="M28.4178 55.7697C25.2041 55.7697 23.2241 53.7102 23.2241 50.3937C23.2241 47.062 25.2041 44.9873 28.4178 44.9873C31.6162 44.9873 33.5962 47.062 33.5962 50.3937C33.5962 53.7102 31.6162 55.7697 28.4178 55.7697ZM28.4178 53.7859C30.1084 53.7859 31.0984 52.5138 31.0984 50.3937C31.0984 48.2735 30.1084 46.9711 28.4178 46.9711C26.7119 46.9711 25.7219 48.2584 25.7219 50.3937C25.7219 52.5138 26.7119 53.7859 28.4178 53.7859Z" fill="black"/>
<path id="Vector_9" d="M12.9292 55.5274V45.2296H16.9653C19.5241 45.2296 21.1081 46.5168 21.1081 48.6824C21.1081 50.8934 19.5089 52.1654 16.9958 52.1654H15.3661V55.5274H12.9292ZM16.9196 47.1528H15.3661V50.2422H16.8587C18.0467 50.2422 18.595 49.6213 18.595 48.6975C18.595 47.7586 18.0162 47.1528 16.9196 47.1528Z" fill="black"/>
<path id="Vector_10" d="M76.9094 38.5481L76.224 36.6248H72.1574L71.472 38.5481H69.0198L72.7971 28.2502H75.7214L79.5138 38.5481H76.9094ZM73.8785 31.7939L72.8275 34.7621H75.5538L74.5029 31.7939L74.1983 30.6278L73.8785 31.7939Z" fill="black"/>
<path id="Vector_11" d="M55.1815 38.5481V28.2502H58.3952L60.6494 34.3381L61.0911 35.8676L61.5328 34.3381L63.7869 28.2502H66.9092V38.5481H64.4723L64.6094 30.961L63.8174 33.5203L61.9288 38.5481H60.162L58.2581 33.49L57.4814 30.9761L57.6185 38.5481H55.1815Z" fill="black"/>
<path id="Vector_12" d="M46.6842 30.9003C46.6842 33.0961 52.7765 31.2334 52.7765 35.4434C52.7765 37.5636 51.0097 38.7902 48.588 38.7902C46.1356 38.7902 44.3841 37.6696 44.0185 35.3223H46.5928C46.7908 36.3369 47.5066 36.8972 48.6032 36.8972C49.6998 36.8972 50.2786 36.4581 50.2786 35.7463C50.2786 33.4444 44.1708 35.2011 44.1708 31.1274C44.1708 29.401 45.6178 28.0078 48.1615 28.0078C50.3091 28.0078 52.1672 29.0225 52.4871 31.4H49.8826C49.6694 30.3854 49.0754 29.9008 48.0702 29.9008C47.2172 29.9008 46.6842 30.2945 46.6842 30.9003Z" fill="black"/>
<path id="Vector_13" d="M40.007 38.5481L39.3216 36.6248H35.255L34.5696 38.5481H32.1175L35.8947 28.2502H38.819L42.6115 38.5481H40.007ZM36.9761 31.7939L35.9252 34.7621H38.6515L37.6006 31.7939L37.296 30.6278L36.9761 31.7939Z" fill="black"/>
<path id="Vector_14" d="M23.5592 38.5481V28.2502H25.9961V36.5794H30.5501V38.5481H23.5592Z" fill="black"/>
<path id="Vector_15" d="M12.9292 38.5481V28.2502H16.9653C19.5241 28.2502 21.1081 29.5375 21.1081 31.703C21.1081 33.914 19.5089 35.1861 16.9958 35.1861H15.3661V38.5481H12.9292ZM16.9196 30.1735H15.3661V33.2629H16.8587C18.0467 33.2629 18.595 32.642 18.595 31.7182C18.595 30.7793 18.0162 30.1735 16.9196 30.1735Z" fill="black"/>
<path id="Vector_16" d="M58.5485 13.9209C58.5485 16.1168 64.6408 14.2541 64.6408 18.4641C64.6408 20.5842 62.874 21.8109 60.4523 21.8109C58.0002 21.8109 56.2486 20.6902 55.8831 18.3429H58.4571C58.6551 19.3576 59.3709 19.9179 60.4675 19.9179C61.5642 19.9179 62.1429 19.4787 62.1429 18.7669C62.1429 16.4651 56.0354 18.2218 56.0354 14.1481C56.0354 12.4217 57.4823 11.0284 60.0259 11.0284C62.1734 11.0284 64.0315 12.0431 64.3514 14.4207H61.7469C61.5337 13.406 60.9397 12.9214 59.9345 12.9214C59.0815 12.9214 58.5485 13.3152 58.5485 13.9209Z" fill="black"/>
<path id="Vector_17" d="M47.9035 13.9209C47.9035 16.1168 53.9959 14.2541 53.9959 18.4641C53.9959 20.5842 52.2291 21.8109 49.8074 21.8109C47.3552 21.8109 45.6037 20.6902 45.2382 18.3429H47.8122C48.0102 19.3576 48.726 19.9179 49.8226 19.9179C50.9192 19.9179 51.498 19.4787 51.498 18.7669C51.498 16.4651 45.3905 18.2218 45.3905 14.1481C45.3905 12.4217 46.8374 11.0284 49.3809 11.0284C51.5285 11.0284 53.3866 12.0431 53.7065 14.4207H51.102C50.8888 13.406 50.2948 12.9214 49.2895 12.9214C48.4366 12.9214 47.9035 13.3152 47.9035 13.9209Z" fill="black"/>
<path id="Vector_18" d="M40.3914 21.5686V11.2708H42.8283V21.5686H40.3914Z" fill="black"/>
<path id="Vector_19" d="M32.309 21.5686L30.6184 15.6473L30.3747 14.557L30.1158 15.6473L28.4404 21.5686H25.6989L22.6375 11.2708H25.242L26.9021 18.0249L27.1762 19.2516L27.4504 18.0249L29.3695 11.2708H31.5018L33.4056 18.0249L33.6798 19.2516L33.954 18.0249L35.6141 11.2708H38.0815L35.0201 21.5686H32.309Z" fill="black"/>
<path id="Vector_20" d="M15.0767 13.9209C15.0767 16.1168 21.169 14.2541 21.169 18.4641C21.169 20.5842 19.4022 21.8109 16.9805 21.8109C14.5283 21.8109 12.7768 20.6902 12.4113 18.3429H14.9853C15.1833 19.3576 15.8991 19.9179 16.9957 19.9179C18.0923 19.9179 18.6711 19.4787 18.6711 18.7669C18.6711 16.4651 12.5636 18.2218 12.5636 14.1481C12.5636 12.4217 14.0105 11.0284 16.554 11.0284C18.7016 11.0284 20.5597 12.0431 20.8796 14.4207H18.2751C18.0619 13.406 17.4679 12.9214 16.4627 12.9214C15.6097 12.9214 15.0767 13.3152 15.0767 13.9209Z" fill="black"/>
<path id="Vector_21" d="M120 55.2869H118.615V1.37671H1.38462V65.6233H118.615H118.623H120.008L120 67H0V0H120V55.2869Z" fill="black"/>
</g>
</svg>
